PathFileType	4	(X/Y/Z)	C:/Users/beibeiliu/ov580/test_trc/User1\sequence.13_training_dense_left.trc
DataRate	CameraRate	NumFrames	NumMarkers	Units	OrigDataRate	OrigDataStartFrame	OrigNumFrames
120	120	19	19	mm	120	277	316
Frame#	Time	ThumbCMC			ThumbMCP			ThumbIP			ThumbTip			IndexMCP			IndexPIP			IndexTip			MiddleMCP			MiddlePIP			MiddleTip			RingMCP			RingPIP			RingTip			PinkyMCP			PinkyPIP			PinkyTip			BackHand1			BackHand2			BackHand3	
		X0	Y0	Z0	X1	Y1	Z1	X2	Y2	Z2	X3	Y3	Z3	X4	Y4	Z4	X5	Y5	Z5	X6	Y6	Z6	X7	Y7	Z7	X8	Y8	Z8	X9	Y9	Z9	X10	Y10	Z10	X11	Y11	Z11	X12	Y12	Z12	X13	Y13	Z13	X14	Y14	Z14	X15	Y15	Z15	X16	Y16	Z16	X17	Y17	Z17	X18	Y18	Z18	
276	2.3	-234.531	44.3203	5.65392	-203.659	62.9676	-10.6703	-183.146	66.2679	-27.8512	-160.738	68.9418	-42.9647	-204.907	36.6635	-72.3878	-176.791	43.2065	-74.1511	-156.985	47.3767	-46.571	-208.031	-0.290599	-80.9187	-192.371	4.20319	-102.698	-172.848	5.04765	-126.99	-197.632	-23.6298	-64.7294	-182.352	-24.9607	-87.849	-165.482	-20.2156	-107.848	-181.935	-40.0316	-39.4642	-168.313	-46.0143	-48.2246	-152.357	-52.6256	-68.3239	-230.507	-22.4892	-15.8957	-243.072	-22.5587	13.4356	-252.513	8.61908	-8.6625	
277	2.30833	-235.12	46.3601	6.87574	-203.029	59.5011	-9.11615	-180.681	65.1038	-26.3664	-158.884	69.5381	-38.403	-201.729	34.7175	-70.405	-172.259	45.5012	-69.5143	-153.285	51.032	-41.3428	-204.14	-2.0949	-75.6387	-187.382	1.85804	-96.5939	-164.601	3.95384	-122.157	-194.544	-22.0349	-63.3148	-176.153	-26.2878	-82.0511	-156.936	-18.6272	-102.984	-180.78	-39.1565	-33.2771	-164.582	-42.5378	-47.7247	-149.054	-54.4568	-61.5621	-226.706	-24.9987	-12.509	-243.37	-21.8906	16.7501	-248.136	6.07952	-9.77768	
278	2.31667	-233.879	46.9937	7.96371	-199.865	64.1353	-6.29805	-176.852	67.5215	-23.3298	-152.67	70.9304	-33.9769	-196.395	35.7103	-67.2599	-165.683	44.2608	-63.6913	-147.685	49.9452	-36.8829	-197.775	0.811721	-73.3286	-177.262	2.91189	-93.3078	-154.163	4.75874	-112.515	-186.379	-24.0886	-56.3873	-164.85	-24.4947	-76.6753	-145.987	-20.6793	-91.6657	-176.626	-41.042	-24.8246	-158.421	-43.0257	-40.944	-144.492	-50.6999	-53.9998	-223.496	-25.3861	-9.92395	-244.749	-21.9546	18.0896	-246.884	8.20009	-9.83347	
279	2.325	-229.114	48.3732	8.21147	-194.76	59.2969	-0.248354	-168.805	68.8757	-16.467	-145.369	69.228	-23.9412	-185.997	34.9332	-62.211	-157.806	45.7324	-57.4216	-140.881	48.1145	-25.6925	-184.645	0.325087	-68.7658	-163.892	4.44166	-85.9747	-140.556	6.19437	-103.183	-176.591	-22.8112	-52.1313	-153.289	-22.5468	-69.7166	-132.226	-16.8193	-82.1373	-170.688	-39.9676	-19.5974	-155.649	-45.3022	-27.5209	-136.391	-54.2211	-39.9542	-221.273	-20.5224	-12.1805	-241.438	-24.2143	17.5228	-245.47	7.74873	-6.32496	
280	2.33333	-224.413	49.0532	12.4595	-187.956	62.6563	4.9042	-162.7	63.2405	-8.30739	-138.606	69.1723	-12.2302	-177.501	34.4044	-55.139	-145.984	40.4267	-49.8647	-133.165	46.237	-20.0644	-175.351	5.32289	-62.0383	-153.48	7.04029	-74.8583	-126.304	12.9148	-92.3448	-169.591	-21.3145	-44.0025	-141.63	-18.0519	-62.1227	-117.473	-17.4671	-70.3978	-165.241	-40.2167	-13.9534	-145.692	-46.2281	-20.7923	-127.478	-54.1429	-32.6136	-215.717	-21.9475	-8.03572	-238.477	-23.9312	21.6525	-237.729	7.37096	-3.77258	
281	2.34167	-217.839	46.0558	12.0471	-182.145	64.1601	6.54188	-158.122	65.7482	-1.23982	-133.441	65.041	-7.79427	-169.612	34.4155	-51.2845	-136.928	45.108	-43.3464	-128.11	47.3095	-10.9734	-165.795	5.29265	-60.741	-140.76	9.30455	-73.1787	-115.649	10.2361	-84.0877	-159.215	-18.8373	-43.7872	-135.301	-20.4594	-55.0527	-110.206	-13.3672	-66.6009	-161.817	-41.1908	-8.57118	-139.83	-45.3745	-20.3684	-119.138	-55.8923	-29.2686	-209.32	-20.1416	-7.75835	-233.829	-21.857	19.2618	-231.034	9.03025	-4.92843	
282	2.35	-214.25	49.9958	9.1438	-181.502	61.6298	9.29182	-155.397	68.1359	-0.632915	-127.668	68.2366	-7.51205	-164.159	37.0808	-52.8097	-136.357	44.5362	-43.6871	-125.701	45.8894	-8.45774	-162.545	1.47154	-60.4395	-140.827	9.16257	-74.9645	-114.755	9.66265	-84.7554	-158.906	-18.9921	-46.4855	-134.447	-19.0297	-59.7283	-107.412	-20.2143	-68.5423	-158.323	-40.906	-15.5343	-138.32	-49.2317	-21.0507	-119.841	-56.4244	-33.3526	-210.1	-20.2866	-10.7643	-230.648	-23.3218	18.5876	-230.909	12.0506	-8.61337	
283	2.35833	-214.847	46.8715	10.6325	-178.559	61.2831	3.50408	-154.379	64.9164	-6.32776	-129.792	67.9682	-12.2058	-169.92	35.4007	-54.3925	-139.258	41.367	-48.234	-125.622	42.849	-13.9673	-168.287	3.37447	-64.5345	-145.564	5.11165	-77.6919	-119.023	7.17791	-90.7614	-164.822	-23.5059	-48.7839	-140.213	-24.0344	-65.7179	-115.986	-21.0415	-76.4845	-160.889	-42.1114	-18.8689	-143.818	-49.712	-25.3408	-128.094	-57.5693	-41.8446	-211.643	-24.0079	-8.62978	-233.015	-17.8741	17.0586	-231.629	12.674	-8.91861	
284	2.36667	-215.9	46.138	11.64	-182.613	61.3271	2.42582	-158.668	65.5648	-13.003	-134.737	60.5591	-24.1026	-178.528	32.5691	-58.2018	-141.52	38.3158	-51.0442	-129.055	42.2942	-21.808	-179.865	2.03459	-66.9647	-157.803	5.47162	-83.7608	-130.579	8.42939	-99.7269	-176.085	-21.4872	-55.5858	-155.766	-24.0549	-75.0664	-131.797	-20.3483	-88.4921	-169.575	-40.7656	-29.1345	-155.527	-48.4198	-36.7658	-134.417	-58.7364	-54.9795	-215.414	-19.2422	-11.627	-235.889	-22.5588	20.6871	-235.272	14.8268	-6.07883	
285	2.375	-217.152	45.6273	8.1523	-184.864	61.3263	-5.76106	-163.615	59.804	-22.5449	-140.324	61.8146	-35.8528	-185.343	29.8115	-65.402	-153.173	38.6131	-62.4334	-136.157	37.8335	-36.3987	-190.441	-1.92586	-74.3935	-170.038	3.16342	-93.7651	-147.514	3.66339	-111.25	-192.598	-25.5143	-58.696	-174.307	-26.3224	-84.5909	-150.108	-28.5994	-100.264	-183.512	-43.1083	-34.7095	-167.817	-54.6626	-47.2383	-154.504	-60.2861	-66.3099	-225.087	-20.8433	-10.492	-236.869	-20.2233	17.8747	-240.604	13.5096	-2.59112	
286	2.38333	-218.057	43.1404	2.68792	-187.833	54.1871	-12.172	-168.594	53.7834	-36.8478	-150.44	49.6292	-52.5854	-198.853	24.5249	-72.6728	-168.285	27.2871	-74.8571	-147.224	25.9993	-51.8006	-210.081	-7.77974	-74.9969	-191.751	-6.99771	-97.7249	-168.297	-9.05728	-121.53	-211.335	-28.7157	-66.5107	-196.938	-37.4286	-91.1923	-176.28	-39.1702	-111.605	-199.135	-50.2906	-35.5854	-190.051	-58.7665	-53.4974	-177.882	-67.6314	-77.4221	-230.809	-23.1054	-11.7909	-243.043	-15.5822	20.4066	-245.354	15.1427	-1.34878	
287	2.39167	-220.576	43.8268	1.51485	-192.552	45.7998	-24.6093	-175.825	46.466	-48.8789	-159.418	39.4194	-67.3983	-214.479	17.6442	-77.6681	-185.405	14.0617	-85.1517	-157.009	18.1859	-61.9452	-228.229	-13.6187	-76.1536	-212.163	-15.1967	-105.574	-194.71	-20.474	-127.076	-229.098	-35.279	-62.6	-223.806	-42.9798	-89.5902	-209.035	-49.1916	-114.717	-215.994	-53.6135	-34.949	-210.188	-65.0667	-55.3524	-204.792	-72.2319	-78.4526	-242.256	-25.0179	-9.15312	-247.526	-15.9173	27.5568	-250.527	15.5547	-0.494584	
288	2.4	-220.787	40.5187	-1.11499	-194.25	44.0808	-29.1195	-183.92	36.1771	-56.4412	-171.535	28.0491	-72.1391	-231.767	8.03095	-76.1648	-203.512	4.60481	-90.843	-172.969	3.44777	-75.8036	-246.195	-20.4607	-75.5723	-236.435	-25.8447	-100.96	-223.842	-32.3749	-129.944	-248.536	-41.8695	-56.2443	-247.031	-46.142	-84.548	-239.129	-54.2609	-108.619	-234.165	-57.3097	-31.9731	-232.019	-70.5109	-53.4797	-233.518	-80.9215	-77.3125	-251.639	-22.8987	0.200594	-249.521	-11.866	30.6911	-254.395	14.2457	0.196411	
289	2.40833	-222.028	41.5961	-0.69833	-199.429	39.2809	-31.9036	-192.877	29.3679	-61.2777	-181.474	20.2913	-80.0002	-246.158	9.37355	-71.3235	-218.419	-4.05086	-90.0816	-188.827	-8.47471	-80.6664	-263.875	-18.6178	-66.1904	-260.868	-27.4486	-93.6346	-251.944	-39.7514	-126.481	-264.87	-37.8478	-54.4344	-266.868	-46.4489	-80.5316	-263.66	-60.6365	-104.124	-248.428	-56.8711	-27.4017	-251.928	-68.3298	-44.1709	-256.87	-82.1076	-69.9333	-258.606	-20.5653	1.64373	-255.307	-9.22826	35.4806	-258.761	16.0163	7.99186	
290	2.41667	-220.514	40.8978	-1.39474	-202.501	35.7095	-36.309	-198.157	25.1416	-64.3154	-192.51	8.4495	-82.8791	-254.757	11.4274	-68.2493	-230.255	-5.31979	-90.4143	-202.355	-11.942	-84.5585	-276.647	-15.885	-65.3947	-277.001	-25.1747	-91.2441	-274.08	-33.0926	-120.473	-275.549	-34.7162	-50.7014	-280.634	-44.7487	-75.6856	-280.563	-55.5825	-100.235	-260.567	-54.8989	-22.7586	-265.361	-71.7669	-43.025	-271.928	-81.6502	-61.1388	-264.497	-13.0117	8.87531	-256.921	-6.81928	38.2734	-258.882	17.6553	7.80885	
291	2.425	-218.677	40.5914	-3.06572	-202.73	29.7467	-34.4857	-198.34	21.6763	-62.2313	-191.643	8.52088	-80.1818	-255.314	16.1185	-72.5029	-236.47	-3.43477	-90.197	-207.482	-13.9877	-82.6524	-282.269	-6.71787	-61.2	-285.395	-17.6342	-86.3967	-284.655	-25.8873	-116.249	-281.796	-30.5965	-46.3632	-287.477	-40.6551	-70.5661	-289.778	-48.9955	-98.5155	-270.708	-54.8804	-26.0834	-274.344	-62.7644	-41.3741	-284.127	-74.8203	-59.0994	-267.336	-15.4465	8.67505	-257.309	-7.23263	40.8451	-257.754	23.9948	12.122	
292	2.43333	-212.925	39.0318	-1.83203	-197.813	27.9925	-32.4155	-193.211	20.7961	-58.5954	-191.445	5.27814	-81.6334	-254.747	18.2248	-68.8256	-237.254	3.26246	-88.7584	-207.92	-11.7937	-79.191	-281.782	-2.19358	-60.008	-285.663	-5.52748	-90.9021	-286.99	-14.8566	-114.615	-284.429	-21.2423	-48.0415	-292.716	-31.523	-76.4629	-293.201	-40.4851	-95.6907	-273.75	-46.5639	-22.5038	-281.287	-55.9749	-40.7987	-291.645	-62.4726	-61.777	-267.357	-10.231	10.957	-254.902	-0.945201	36.4373	-253.407	26.9225	13.6141	
293	2.44167	-203.936	34.4023	6.26993	-186.438	25.4564	-26.4867	-186.776	16.6039	-59.0899	-182.474	4.55174	-76.2008	-246.094	27.5121	-64.2668	-228.748	7.56279	-88.3192	-202.871	-7.5875	-78.4999	-276.538	12.1834	-63.4702	-280.235	4.79081	-88.7039	-283.456	-5.33911	-116.175	-280.896	-10.804	-45.453	-288.8	-16.4697	-72.1496	-293.81	-27.4373	-96.3953	-274.612	-35.0822	-27.1561	-283.443	-45.0566	-46.0952	-295.161	-52.3829	-66.6407	-267.467	-5.06319	7.59994	-255.888	0.747857	37.4033	-245.783	29.5282	12.7848	
294	2.45	-194.024	31.7149	6.55058	-180.882	20.5241	-24.8174	-177.656	13.5548	-50.2393	-175.009	1.23972	-72.42	-233.744	33.8236	-62.2188	-220.235	11.3866	-86.3521	-194.143	-9.46557	-71.4381	-267.495	18.5726	-61.4532	-270.882	17.2368	-86.8633	-274.088	11.8136	-121.201	-276.827	-2.34802	-47.053	-286.592	-5.42933	-76.1922	-290.446	-11.0474	-98.7799	-277.881	-31.7525	-30.6331	-285.046	-39.8109	-47.9958	-296.832	-44.8923	-70.224	-262.342	1.78943	6.5031	-252.756	0.392738	43.1541	-237.329	29.7429	18.6972	
